<svg width="32" height="32" xmlns="http://www.w3.org/2000/svg" xmlns:xlink="http://www.w3.org/1999/xlink">
 <!-- Generator: Sketch 63.1 (92452) - https://sketch.com -->
 <title>icon-fav</title>
 <desc>Created with Sketch.</desc>
 <defs>
  <path id="path-1" d="m16.277,9.49709c0.9581,-0.95855 2.25782,-1.49709 3.61309,-1.49709c1.35527,0 2.65499,0.53854 3.61309,1.49709c0.95828,0.95783 1.49682,2.25755 1.49682,3.61282c0,1.35527 -0.53854,2.65499 -1.49696,3.61295l-6.94752,6.94753c-0.30692,0.30692 -0.80454,0.30692 -1.11146,0l-6.94753,-6.94753c-1.99537,-1.99538 -1.99537,-5.23052 0,-7.2259c1.99538,-1.99538 5.23053,-1.99538 7.22591,0l0.27735,0.27734l0.27721,-0.27721zm-0.27721,12.50611l5.55872,-5.55872l0.83321,-0.8332c0.6636,-0.6633 1.03644,-1.56311 1.03644,-2.50137c0,-0.93826 -0.37284,-1.83807 -1.03644,-2.50137c-0.66356,-0.66386 -1.56337,-1.0367 -2.50163,-1.0367c-0.93826,0 -1.83807,0.37284 -2.5015,1.03657l-0.83307,0.83308c-0.30692,0.30692 -0.80454,0.30692 -1.11146,0l-0.83307,-0.83308c-1.38154,-1.38154 -3.62146,-1.38154 -5.003,0c-1.38154,1.38154 -1.38154,3.62146 0,5.003l6.3918,6.39179z"/>
 </defs>
 <g>
  <title>background</title>
  <rect fill="none" id="canvas_background" height="602" width="802" y="-1" x="-1"/>
 </g>
 <g>
  <title>Layer 1</title>
  <g fill-opacity="0.7" fill-rule="evenodd" fill="none" id="GIFOS">
   <g id="00-UI-Kit">
    <g id="icon-fav">
     <rect rx="6" height="32" width="32" y="0.62501" x="0" opacity="0.7" fill-rule="nonzero" fill="#FFFFFF" id="Rectangle"/>
     <mask transform="translate(0,0.6250067353248596) translate(816,2777) translate(-816,-2777) " id="mask-2">
      <use id="svg_1" xlink:href="#path-1"/>
     </mask>
     <use id="svg_2" x="0" y="0.62501" xlink:href="#path-1" fill-rule="nonzero" fill="#572EE5" fill-opacity="0.7"/>
    </g>
   </g>
  </g>
  <path stroke="#000000" id="svg_8" d="m16.04805,11.27256c3.96838,-10.55799 19.51664,0 0,13.57456c-19.51664,-13.57456 -3.96838,-24.13255 0,-13.57456z" stroke-opacity="0" fill="#572ee5"/>
  <path id="svg_13" d="m60.2639,17.95825c0.305,-0.875 1.5,0 0,1.125c-1.5,-1.125 -0.305,-2 0,-1.125z" fill-opacity="0.7" stroke-opacity="0" stroke-width="null" stroke="#000000" fill="#572ee5"/>
  <path id="svg_14" d="m57.90076,16.74955c0.305,-0.07383 1.5,0 0,0.09493c-1.5,-0.09493 -0.305,-0.16876 0,-0.09493z" fill-opacity="0.7" stroke-opacity="0" stroke-width="null" stroke="#000000" fill="#572ee5"/>
  <path id="svg_15" d="m57.27887,22.18705c0.305,-0.875 1.5,0 0,1.125c-1.5,-1.125 -0.305,-2 0,-1.125z" fill-opacity="0.7" stroke-opacity="0" stroke-width="null" stroke="#000000" fill="#572ee5"/>
  <path id="svg_16" d="m59.64202,7.51064c0.305,-0.875 1.5,0 0,1.125c-1.5,-1.125 -0.305,-2 0,-1.125z" fill-opacity="0.7" stroke-opacity="0" stroke-width="null" stroke="#000000" fill="#572ee5"/>
  <path id="svg_17" d="m-46.32661,-13.63334c0.305,-0.875 1.5,0 0,1.125c-1.5,-1.125 -0.305,-2 0,-1.125z" fill-opacity="0.7" stroke-opacity="0" stroke-width="null" stroke="#000000" fill="#572ee5"/>
 </g>
</svg>